<svg xmlns="http://www.w3.org/2000/svg" viewBox="0 0 1400 760" role="img" aria-labelledby="title desc">
  <title id="title">GitHub Star Manager interface preview</title>
  <desc id="desc">A light dashboard showing GitHub Star analysis, filters, metrics, and project cards.</desc>
  <rect width="1400" height="760" rx="24" fill="#eef2f6"/>
  <rect x="18" y="18" width="300" height="724" rx="18" fill="#ffffff" stroke="#d7e0ea"/>
  <rect x="42" y="42" width="42" height="42" rx="10" fill="#1c2738"/>
  <path d="M53 72l10-12 9 8 8-15" fill="none" stroke="#fff" stroke-width="3" stroke-linecap="round" stroke-linejoin="round"/>
  <text x="98" y="63" fill="#152238" font-family="Arial,sans-serif" font-size="22" font-weight="700">GitHub Star Manager</text>
  <text x="42" y="122" fill="#52627a" font-family="Arial,sans-serif" font-size="15">分析模式</text>
  <rect x="42" y="140" width="252" height="42" rx="9" fill="#172238"/>
  <text x="79" y="167" fill="#fff" font-family="Arial,sans-serif" font-size="15" font-weight="700">公开用户名</text>
  <rect x="42" y="211" width="252" height="48" rx="10" fill="#fff" stroke="#cad6e3"/>
  <text x="58" y="241" fill="#20304a" font-family="Arial,sans-serif" font-size="16">GouYuShiYinZei</text>
  <text x="42" y="303" fill="#52627a" font-family="Arial,sans-serif" font-size="15">Personal Access Token</text>
  <rect x="42" y="319" width="252" height="48" rx="10" fill="#fff" stroke="#cad6e3"/>
  <text x="58" y="349" fill="#20304a" font-family="Arial,sans-serif" font-size="16">••••••••••••••••</text>
  <text x="42" y="416" fill="#52627a" font-family="Arial,sans-serif" font-size="15">深度分析范围</text>
  <rect x="42" y="432" width="252" height="48" rx="10" fill="#fff" stroke="#cad6e3"/>
  <text x="58" y="462" fill="#20304a" font-family="Arial,sans-serif" font-size="16">全部 Star</text>
  <rect x="42" y="518" width="252" height="48" rx="10" fill="#172238"/>
  <text x="112" y="548" fill="#fff" font-family="Arial,sans-serif" font-size="16" font-weight="700">开始分析</text>
  <rect x="342" y="18" width="1040" height="724" rx="18" fill="#fff" stroke="#d7e0ea"/>
  <text x="378" y="62" fill="#168da7" font-family="Arial,sans-serif" font-size="13" font-weight="700" letter-spacing="2">GITHUB INTELLIGENCE</text>
  <text x="378" y="101" fill="#152238" font-family="Arial,sans-serif" font-size="32" font-weight="700">Star 项目画像</text>
  <rect x="1150" y="47" width="180" height="44" rx="10" fill="#effbfc" stroke="#9bd7df"/>
  <text x="1180" y="75" fill="#147d91" font-family="Arial,sans-serif" font-size="15" font-weight="700">榜单分析</text>
  <rect x="378" y="129" width="964" height="86" rx="12" fill="#effbfc" stroke="#b9e5eb"/>
  <text x="404" y="163" fill="#18324b" font-family="Arial,sans-serif" font-size="18" font-weight="700">Star 已同步</text>
  <text x="404" y="190" fill="#60748b" font-family="Arial,sans-serif" font-size="14">当前 74 个项目 · 新增 0 · 仓库内容更新 6 · AI 历史可复用</text>
  <rect x="378" y="240" width="462" height="48" rx="10" fill="#fff" stroke="#cad6e3"/>
  <text x="400" y="270" fill="#8997a9" font-family="Arial,sans-serif" font-size="16">搜索项目、用途、语言或 topic</text>
  <rect x="858" y="240" width="224" height="48" rx="10" fill="#fff" stroke="#cad6e3"/>
  <text x="883" y="270" fill="#20304a" font-family="Arial,sans-serif" font-size="15">全部方向</text>
  <rect x="1098" y="240" width="244" height="48" rx="10" fill="#fff" stroke="#cad6e3"/>
  <text x="1123" y="270" fill="#20304a" font-family="Arial,sans-serif" font-size="15">Star 顺序</text>
  <g font-family="Arial,sans-serif">
    <rect x="378" y="319" width="224" height="94" rx="12" fill="#fbfcfe" stroke="#d7e0ea"/>
    <text x="402" y="352" fill="#172238" font-size="30" font-weight="700">74</text><text x="402" y="383" fill="#60748b" font-size="14">Star 项目</text>
    <rect x="620" y="319" width="224" height="94" rx="12" fill="#fbfcfe" stroke="#d7e0ea"/>
    <text x="644" y="352" fill="#172238" font-size="30" font-weight="700">2.1M</text><text x="644" y="383" fill="#60748b" font-size="14">项目总热度</text>
    <rect x="862" y="319" width="224" height="94" rx="12" fill="#fbfcfe" stroke="#d7e0ea"/>
    <text x="886" y="352" fill="#172238" font-size="30" font-weight="700">62</text><text x="886" y="383" fill="#60748b" font-size="14">README 已读</text>
    <rect x="1104" y="319" width="238" height="94" rx="12" fill="#fbfcfe" stroke="#d7e0ea"/>
    <text x="1128" y="352" fill="#172238" font-size="30" font-weight="700">62</text><text x="1128" y="383" fill="#60748b" font-size="14">代码画像</text>
  </g>
  <rect x="378" y="445" width="466" height="263" rx="12" fill="#fbfcfe" stroke="#d7e0ea"/>
  <text x="404" y="481" fill="#172238" font-family="Arial,sans-serif" font-size="20" font-weight="700">方向分布</text>
  <g font-family="Arial,sans-serif" font-size="14" fill="#20304a">
    <text x="404" y="520">AI / 机器学习</text><rect x="560" y="507" width="220" height="12" rx="6" fill="#7c3aed"/><text x="794" y="520">11</text>
    <text x="404" y="560">后端与 API</text><rect x="560" y="547" width="180" height="12" rx="6" fill="#168da7"/><text x="754" y="560">11</text>
    <text x="404" y="600">开发工具</text><rect x="560" y="587" width="148" height="12" rx="6" fill="#53647c"/><text x="722" y="600">8</text>
    <text x="404" y="640">效率/办公工具</text><rect x="560" y="627" width="148" height="12" rx="6" fill="#159b8c"/><text x="722" y="640">8</text>
    <text x="404" y="680">图形与媒体</text><rect x="560" y="667" width="126" height="12" rx="6" fill="#db2777"/><text x="700" y="680">7</text>
  </g>
  <rect x="870" y="445" width="472" height="263" rx="12" fill="#fbfcfe" stroke="#d7e0ea"/>
  <text x="896" y="481" fill="#172238" font-family="Arial,sans-serif" font-size="20" font-weight="700">项目分析</text>
  <rect x="896" y="505" width="420" height="78" rx="10" fill="#fff" stroke="#e0e7ef"/>
  <text x="918" y="534" fill="#172238" font-family="Arial,sans-serif" font-size="16" font-weight="700">MemPalace / mempalace</text>
  <text x="918" y="560" fill="#168da7" font-family="Arial,sans-serif" font-size="14">AI 记忆系统 · AI Memory System</text>
  <rect x="896" y="599" width="420" height="78" rx="10" fill="#fff" stroke="#e0e7ef"/>
  <text x="918" y="628" fill="#172238" font-family="Arial,sans-serif" font-size="16" font-weight="700">Agent Skills for Context</text>
  <text x="918" y="654" fill="#168da7" font-family="Arial,sans-serif" font-size="14">Agent 文本处理 / 上下文工程 Skill 集</text>
</svg>
